<?xml version="1.0" encoding="UTF-8" standalone="no"?>
<!-- Created with Inkscape (http://www.inkscape.org/) -->

<svg
   xmlns:dc="http://purl.org/dc/elements/1.1/"
   xmlns:cc="http://creativecommons.org/ns#"
   xmlns:rdf="http://www.w3.org/1999/02/22-rdf-syntax-ns#"
   xmlns:svg="http://www.w3.org/2000/svg"
   xmlns="http://www.w3.org/2000/svg"
   xmlns:sodipodi="http://sodipodi.sourceforge.net/DTD/sodipodi-0.dtd"
   xmlns:inkscape="http://www.inkscape.org/namespaces/inkscape"
   width="202.5625"
   height="202.5625"
   id="svg2"
   sodipodi:version="0.32"
   inkscape:version="0.48.2 r9819"
   version="1.0"
   sodipodi:docname="Nepal A24.svg"
   inkscape:output_extension="org.inkscape.output.svg.inkscape">
  <defs
     id="defs4">
    <inkscape:perspective
       sodipodi:type="inkscape:persp3d"
       inkscape:vp_x="0 : 300.5 : 1"
       inkscape:vp_y="0 : 1000 : 0"
       inkscape:vp_z="601 : 300.5 : 1"
       inkscape:persp3d-origin="300.5 : 200.33333 : 1"
       id="perspective3380" />
    <inkscape:perspective
       id="perspective3990"
       inkscape:persp3d-origin="375 : 250 : 1"
       inkscape:vp_z="750 : 375 : 1"
       inkscape:vp_y="0 : 1000 : 0"
       inkscape:vp_x="0 : 375 : 1"
       sodipodi:type="inkscape:persp3d" />
  </defs>
  <sodipodi:namedview
     id="base"
     pagecolor="#ffffff"
     bordercolor="#666666"
     borderopacity="1.0"
     gridtolerance="10000"
     guidetolerance="10"
     objecttolerance="10"
     inkscape:pageopacity="0.0"
     inkscape:pageshadow="2"
     inkscape:zoom="2"
     inkscape:cx="99.723896"
     inkscape:cy="65.370033"
     inkscape:document-units="px"
     inkscape:current-layer="layer1"
     width="601px"
     height="601px"
     inkscape:window-width="1280"
     inkscape:window-height="1004"
     inkscape:window-x="-8"
     inkscape:window-y="-8"
     showgrid="false"
     fit-margin-top="0"
     fit-margin-left="0"
     fit-margin-right="0"
     fit-margin-bottom="0"
     inkscape:window-maximized="1"
     showguides="true"
     inkscape:guide-bbox="true" />
  <metadata
     id="metadata7">
    <rdf:RDF>
      <cc:Work
         rdf:about="">
        <dc:format>image/svg+xml</dc:format>
        <dc:type
           rdf:resource="http://purl.org/dc/dcmitype/StillImage" />
        <dc:title></dc:title>
      </cc:Work>
    </rdf:RDF>
  </metadata>
  <g
     inkscape:label="Layer 1"
     inkscape:groupmode="layer"
     id="layer1"
     transform="translate(-6052.7187,7776.9687)">
    <rect
       style="color:#000000;fill:#000000;fill-opacity:1;fill-rule:nonzero;stroke:none;stroke-width:0.8735441;marker:none;visibility:visible;display:inline;overflow:visible"
       id="rect3653"
       width="0"
       height="27.202072"
       x="578.73834"
       y="298.1684"
       rx="249.48199"
       ry="27.202072" />
    <path
       inkscape:connector-curvature="0"
       d="m 6053.2127,-7675.6849 c 0,55.5412 45.2387,100.7812 100.78,100.7812 55.5413,0 100.78,-45.24 100.78,-100.7812 0,-55.5413 -45.2387,-100.78 -100.78,-100.78 -55.5413,0 -100.78,45.2387 -100.78,100.78 z"
       style="fill:#ffffff;fill-opacity:1;fill-rule:evenodd;stroke:#62be36;stroke-width:1;stroke-linecap:butt;stroke-linejoin:miter;stroke-miterlimit:2.61299992;stroke-opacity:1;stroke-dasharray:none"
       id="path7318" />
    <path
       inkscape:connector-curvature="0"
       d="m 6056.7952,-7675.9087 c 0,53.5263 43.6725,97.1975 97.1975,97.1975 53.525,0 97.1975,-43.6712 97.1975,-97.1975 0,-53.5249 -43.6725,-97.1975 -97.1975,-97.1975 -53.525,0 -97.1975,43.6726 -97.1975,97.1975 z"
       style="fill:#62be36;fill-opacity:1;fill-rule:evenodd;stroke:none"
       id="path7320" />
    <path
       inkscape:connector-curvature="0"
       d="m 6132.7164,-7661.7999 0,-4.9263 -19.9312,0 0,-10.3025 29.785,0 0,38.745 -9.8538,0 0,-6.0475 -0.8962,1.12 -0.6713,0.8963 -2.6875,2.6875 -2.2399,1.3437 -2.9113,1.12 -3.5825,0.895 -4.2562,0 -6.0463,-0.4475 -5.8225,-1.7912 -5.5988,-2.6875 -4.9275,-4.255 -4.255,-4.9275 -3.1349,-6.2713 -2.0163,-7.1662 -0.6725,-8.51 0.6725,-8.0625 2.0163,-7.3913 3.1349,-6.0462 4.4788,-5.375 4.9275,-3.8075 5.5987,-3.135 5.8225,-1.7925 6.0475,-0.6713 4.7025,0.4475 4.48,1.12 4.0313,1.5675 3.5825,1.7926 2.9112,2.2387 2.9113,2.4637 4.48,4.9275 -9.8538,6.7188 -1.7925,-2.0163 -1.5675,-2.015 -3.5837,-3.5837 -2.2388,-1.12 -2.24,-0.895 -2.9112,-0.4488 -2.6875,-0.4475 -3.5838,0.4475 -3.5825,1.12 -3.36,2.0163 -3.135,2.6875 -2.9112,3.8062 -2.24,4.48 -1.3438,5.5988 -0.4475,6.495 0.4475,5.8225 1.3438,4.9262 2.015,4.2563 2.9125,3.3587 3.135,2.6875 3.3587,2.0151 3.5838,1.1212 3.5837,0.2237 3.5825,-0.2237 3.36,-1.1212 2.6875,-1.5676 2.4626,-2.2387 1.7924,-2.24 1.5675,-2.4638 0.8963,-2.4625 0.6712,-2.6887 z"
       style="fill:#ffffff;fill-opacity:1;fill-rule:evenodd;stroke:none"
       id="path7322" />
    <path
       inkscape:connector-curvature="0"
       d="m 6191.8414,-7708.6062 6.495,0.8963 6.0463,1.7912 5.5987,3.3588 5.1513,4.0312 4.0313,5.375 3.3599,6.0475 1.7913,6.9425 0.8962,7.39 -0.8962,7.8388 -1.7913,6.9425 -3.1362,6.2712 -3.8075,5.1513 -5.15,4.4787 -5.5988,3.135 -6.2712,2.0163 -6.7188,0.6712 -6.9425,-0.6712 -6.2712,-2.0163 -5.8225,-3.135 -4.7037,-4.4787 -4.0313,-5.1513 -2.9112,-6.2712 -2.0151,-6.9425 -0.4487,-7.8388 0.4487,-7.39 2.0151,-6.9425 3.1349,-6.0475 4.2563,-5.375 4.7025,-4.0312 5.8225,-3.3588 6.0475,-1.7912 6.7187,-0.8963 z m 0,10.9738 4.7025,0.6725 4.2563,1.7912 3.5825,2.6875 3.135,3.3588 2.0163,4.0312 1.7912,4.0313 0.8963,4.48 0.4474,4.03 -0.4474,4.48 -0.8963,4.255 -1.7912,4.4787 -2.0163,3.8075 -3.135,3.5838 -3.5825,2.6875 -4.2563,1.7912 -4.7025,0.4488 -5.1512,-0.4488 -4.255,-1.7912 -3.5837,-2.6875 -2.9113,-3.5838 -2.2388,-3.8075 -1.5687,-4.4787 -0.895,-4.255 -0.2238,-4.48 0.2238,-4.03 0.895,-4.48 1.5687,-4.0313 2.4626,-4.0312 2.6875,-3.3588 3.8075,-2.6875 4.0312,-1.7912 5.1512,-0.6725 z"
       style="fill:#ffffff;fill-opacity:1;fill-rule:evenodd;stroke:none"
       id="path7324" />
  </g>
</svg>
